/* XPM */
static char * endgame_xpm[] = {
"64 64 676 2",
"  	c None",
". 	c #514047",
"+ 	c #8E888A",
"@ 	c #7C7778",
"# 	c #9E9D9D",
"$ 	c #AEADAD",
"% 	c #A9AAA9",
"& 	c #AAAAA9",
"* 	c #ABABAB",
"= 	c #ABABAA",
"- 	c #AAABAA",
"; 	c #AAAAAA",
"> 	c #A8A9A9",
", 	c #ABACAB",
"' 	c #ABACAC",
") 	c #ADAEAD",
"! 	c #B4B5B5",
"~ 	c #B5B6B6",
"{ 	c #8D898B",
"] 	c #736C6F",
"^ 	c #746D70",
"/ 	c #756E71",
"( 	c #777073",
"_ 	c #787073",
": 	c #787174",
"< 	c #797275",
"[ 	c #736B6F",
"} 	c #7D7578",
"| 	c #847D7F",
"1 	c #B2B2B2",
"2 	c #3D3C3A",
"3 	c #363533",
"4 	c #323030",
"5 	c #2A2929",
"6 	c #252525",
"7 	c #272527",
"8 	c #211F20",
"9 	c #232023",
"0 	c #211F21",
"a 	c #1F1D1F",
"b 	c #181818",
"c 	c #1C1B1D",
"d 	c #1F1E20",
"e 	c #232124",
"f 	c #29272A",
"g 	c #343134",
"h 	c #393639",
"i 	c #3C393C",
"j 	c #393739",
"k 	c #3A373A",
"l 	c #373437",
"m 	c #3A383A",
"n 	c #3B393B",
"o 	c #373537",
"p 	c #3E3C3E",
"q 	c #363436",
"r 	c #383336",
"s 	c #363234",
"t 	c #363336",
"u 	c #322F31",
"v 	c #333032",
"w 	c #353234",
"x 	c #383537",
"y 	c #3A3739",
"z 	c #3C393A",
"A 	c #434042",
"B 	c #989696",
"C 	c #BBB9BA",
"D 	c #AEAEAE",
"E 	c #393837",
"F 	c #312F30",
"G 	c #2F2D2E",
"H 	c #2F2D2D",
"I 	c #2D2B2C",
"J 	c #292728",
"K 	c #2A282A",
"L 	c #262426",
"M 	c #221F22",
"N 	c #221F23",
"O 	c #1E1C1E",
"P 	c #242124",
"Q 	c #222022",
"R 	c #272528",
"S 	c #252225",
"T 	c #2A272A",
"U 	c #2B292C",
"V 	c #252426",
"W 	c #272427",
"X 	c #292629",
"Y 	c #282628",
"Z 	c #252325",
"` 	c #242326",
" .	c #222023",
"..	c #242125",
"+.	c #252326",
"@.	c #201D20",
"#.	c #211F22",
"$.	c #282629",
"%.	c #2F2C2F",
"&.	c #8E8B8B",
"*.	c #3F3D3D",
"=.	c #363435",
"-.	c #343132",
";.	c #312E2F",
">.	c #262325",
",.	c #252324",
"'.	c #242123",
").	c #232224",
"!.	c #2B292B",
"~.	c #211E21",
"{.	c #282528",
"].	c #221F21",
"^.	c #242224",
"/.	c #1C1A1D",
"(.	c #1F1C1F",
"_.	c #212022",
":.	c #201E20",
"<.	c #232123",
"[.	c #242225",
"}.	c #201E21",
"|.	c #18171A",
"1.	c #1C191C",
"2.	c #2C292C",
"3.	c #8D8A8A",
"4.	c #3C3C3A",
"5.	c #343232",
"6.	c #353334",
"7.	c #2F2C2E",
"8.	c #2B282A",
"9.	c #262425",
"0.	c #232022",
"a.	c #252224",
"b.	c #1C1C1E",
"c.	c #1E1B1E",
"d.	c #1C1B1C",
"e.	c #1D1B1E",
"f.	c #1A181A",
"g.	c #1A171A",
"h.	c #1A181B",
"i.	c #1E1B1F",
"j.	c #2A282B",
"k.	c #868282",
"l.	c #A7A6A7",
"m.	c #41413E",
"n.	c #282627",
"o.	c #2B2829",
"p.	c #262427",
"q.	c #1E1C1F",
"r.	c #1F1D20",
"s.	c #1B191B",
"t.	c #1D1C1E",
"u.	c #1B181B",
"v.	c #1D1A1D",
"w.	c #201D21",
"x.	c #7D7779",
"y.	c #A1A1A1",
"z.	c #403F3D",
"A.	c #313030",
"B.	c #272525",
"C.	c #262525",
"D.	c #242223",
"E.	c #1E1D1F",
"F.	c #1C1A1C",
"G.	c #1D1B1D",
"H.	c #181619",
"I.	c #181518",
"J.	c #19171A",
"K.	c #A5A5A5",
"L.	c #3A3938",
"M.	c #272626",
"N.	c #252425",
"O.	c #222122",
"P.	c #1B191C",
"Q.	c #171518",
"R.	c #1B1A1C",
"S.	c #181618",
"T.	c #1E1B1D",
"U.	c #19181B",
"V.	c #161316",
"W.	c #141114",
"X.	c #7C7779",
"Y.	c #393736",
"Z.	c #2E2B2B",
"`.	c #232122",
" +	c #232222",
".+	c #232021",
"++	c #1F1C1E",
"@+	c #191619",
"#+	c #1B181A",
"$+	c #161315",
"%+	c #161416",
"&+	c #161417",
"*+	c #121013",
"=+	c #9B9B9B",
"-+	c #3A3838",
";+	c #2A2729",
">+	c #222021",
",+	c #1D1A1C",
"'+	c #1D1B1C",
")+	c #1A191A",
"!+	c #151316",
"~+	c #131013",
"{+	c #171417",
"]+	c #191719",
"^+	c #7E787A",
"/+	c #999999",
"(+	c #201D1E",
"_+	c #625F5E",
":+	c #1F1B1E",
"<+	c #201F21",
"[+	c #1A1719",
"}+	c #151215",
"|+	c #151216",
"1+	c #151415",
"2+	c #151416",
"3+	c #141315",
"4+	c #171517",
"5+	c #131114",
"6+	c #B1ADAF",
"7+	c #989898",
"8+	c #333231",
"9+	c #262526",
"0+	c #A2A19F",
"a+	c #777574",
"b+	c #898787",
"c+	c #444242",
"d+	c #747271",
"e+	c #282728",
"f+	c #1B1A1B",
"g+	c #161617",
"h+	c #696767",
"i+	c #141215",
"j+	c #7C7678",
"k+	c #9C9799",
"l+	c #939292",
"m+	c #343332",
"n+	c #211E1F",
"o+	c #7B7979",
"p+	c #414041",
"q+	c #959696",
"r+	c #676362",
"s+	c #615D5B",
"t+	c #656361",
"u+	c #929190",
"v+	c #676565",
"w+	c #8E8C8B",
"x+	c #A8A7A5",
"y+	c #A3A2A2",
"z+	c #737172",
"A+	c #91908F",
"B+	c #797778",
"C+	c #706F6F",
"D+	c #141113",
"E+	c #161516",
"F+	c #888787",
"G+	c #A09F9D",
"H+	c #818180",
"I+	c #3A3939",
"J+	c #181515",
"K+	c #2E2C2D",
"L+	c #111011",
"M+	c #151315",
"N+	c #8E8E8E",
"O+	c #2F2E2D",
"P+	c #1E1C1C",
"Q+	c #676665",
"R+	c #626060",
"S+	c #585856",
"T+	c #8D8D8D",
"U+	c #9D9E9E",
"V+	c #202020",
"W+	c #4F4E4E",
"X+	c #A2A1A1",
"Y+	c #8A898A",
"Z+	c #181616",
"`+	c #9E9E9E",
" @	c #333332",
".@	c #9E9D9E",
"+@	c #B0AFAF",
"@@	c #121213",
"#@	c #18181A",
"$@	c #6A6969",
"%@	c #B1B1B1",
"&@	c #585858",
"*@	c #969593",
"=@	c #898888",
"-@	c #333132",
";@	c #757375",
">@	c #181517",
",@	c #989595",
"'@	c #6E6C6B",
")@	c #484848",
"!@	c #100E10",
"~@	c #807B7D",
"{@	c #8B8A8B",
"]@	c #2C2A29",
"^@	c #252223",
"/@	c #1F1D1E",
"(@	c #999997",
"_@	c #504E4F",
":@	c #424142",
"<@	c #8B8888",
"[@	c #8E8D8D",
"}@	c #757272",
"|@	c #5C5A5A",
"1@	c #A9A8A6",
"2@	c #A1A09F",
"3@	c #323232",
"4@	c #474646",
"5@	c #B4B4B4",
"6@	c #A1A1A0",
"7@	c #1A191B",
"8@	c #161517",
"9@	c #636262",
"0@	c #626161",
"a@	c #B5B4B5",
"b@	c #868585",
"c@	c #898887",
"d@	c #585757",
"e@	c #7A7A7A",
"f@	c #878586",
"g@	c #949391",
"h@	c #A09D9C",
"i@	c #444343",
"j@	c #120F12",
"k@	c #827C7E",
"l@	c #8A8A8A",
"m@	c #2E2D2D",
"n@	c #221F20",
"o@	c #1B191A",
"p@	c #1E1B1C",
"q@	c #868684",
"r@	c #848382",
"s@	c #8A8888",
"t@	c #3D3C3B",
"u@	c #878686",
"v@	c #808081",
"w@	c #3B3B3B",
"x@	c #9C9C9C",
"y@	c #181718",
"z@	c #9C9D9C",
"A@	c #949393",
"B@	c #1E1D1E",
"C@	c #6C6B6B",
"D@	c #616060",
"E@	c #7C7C7C",
"F@	c #A7A7A7",
"G@	c #878787",
"H@	c #939291",
"I@	c #494848",
"J@	c #7F7F7D",
"K@	c #141314",
"L@	c #141214",
"M@	c #827D7F",
"N@	c #2C2A2B",
"O@	c #1C1A1B",
"P@	c #1B1919",
"Q@	c #1A1819",
"R@	c #797977",
"S@	c #7F7E7B",
"T@	c #787571",
"U@	c #383738",
"V@	c #595858",
"W@	c #6D6E6C",
"X@	c #6B6A6A",
"Y@	c #363636",
"Z@	c #737273",
"`@	c #2C2B2B",
" #	c #797979",
".#	c #636363",
"+#	c #4E4D4E",
"@#	c #100E11",
"##	c #333232",
"$#	c #120F11",
"%#	c #727373",
"&#	c #191718",
"*#	c #161414",
"=#	c #100F11",
"-#	c #7C7978",
";#	c #5D5C5D",
">#	c #0F0C0F",
",#	c #847F81",
"'#	c #888888",
")#	c #262625",
"!#	c #201D1F",
"~#	c #1F1C1D",
"{#	c #83827F",
"]#	c #1A1818",
"^#	c #151417",
"/#	c #131012",
"(#	c #121012",
"_#	c #110E11",
":#	c #8A8587",
"<#	c #8A8486",
"[#	c #868686",
"}#	c #262323",
"|#	c #191819",
"1#	c #151214",
"2#	c #121113",
"3#	c #171416",
"4#	c #131014",
"5#	c #111012",
"6#	c #8E898B",
"7#	c #5F5257",
"8#	c #7F7F7F",
"9#	c #1C191B",
"0#	c #151314",
"a#	c #110F12",
"b#	c #8E8A8B",
"c#	c #7D7C7C",
"d#	c #181719",
"e#	c #161317",
"f#	c #131214",
"g#	c #110E12",
"h#	c #120F13",
"i#	c #131113",
"j#	c #100D10",
"k#	c #110F11",
"l#	c #8E8A8C",
"m#	c #7B7B7A",
"n#	c #211F1F",
"o#	c #191618",
"p#	c #131213",
"q#	c #121214",
"r#	c #121011",
"s#	c #908B8D",
"t#	c #787978",
"u#	c #1C1B1B",
"v#	c #161518",
"w#	c #110F10",
"x#	c #747475",
"y#	c #191717",
"z#	c #161415",
"A#	c #171516",
"B#	c #171418",
"C#	c #100F10",
"D#	c #131112",
"E#	c #908B8C",
"F#	c #1E1D1D",
"G#	c #0E0C10",
"H#	c #151414",
"I#	c #171415",
"J#	c #110F0F",
"K#	c #141213",
"L#	c #121112",
"M#	c #101012",
"N#	c #101010",
"O#	c #0F0D10",
"P#	c #100D11",
"Q#	c #918C8E",
"R#	c #646464",
"S#	c #1A1A1A",
"T#	c #181617",
"U#	c #1A1718",
"V#	c #110E10",
"W#	c #0E0B0F",
"X#	c #0F0C10",
"Y#	c #948F91",
"Z#	c #626263",
"`#	c #171717",
" $	c #100E0F",
".$	c #0F0D0F",
"+$	c #0F0D0E",
"@$	c #0D0B0E",
"#$	c #0E0C0F",
"$$	c #959193",
"%$	c #121114",
"&$	c #0F0E10",
"*$	c #0E0D10",
"=$	c #110E0F",
"-$	c #0E0E0F",
";$	c #100F12",
">$	c #989395",
",$	c #605F5F",
"'$	c #0D0C0D",
")$	c #0D0C0E",
"!$	c #0E0D0F",
"~$	c #0F0E0F",
"{$	c #0E0B0E",
"]$	c #0D0B0D",
"^$	c #0E0C0E",
"/$	c #9A9597",
"($	c #5C5B5B",
"_$	c #100D0F",
":$	c #0E0D0E",
"<$	c #111013",
"[$	c #0B080A",
"}$	c #9B9799",
"|$	c #141212",
"1$	c #120F10",
"2$	c #0E0C0D",
"3$	c #0D0D0E",
"4$	c #0F0F10",
"5$	c #0F0F11",
"6$	c #0E0E10",
"7$	c #0C0B0E",
"8$	c #9E9A9C",
"9$	c #565656",
"0$	c #111010",
"a$	c #0C0B0D",
"b$	c #101011",
"c$	c #0D0A0D",
"d$	c #0C0A0C",
"e$	c #9F9B9C",
"f$	c #4F4F4E",
"g$	c #151213",
"h$	c #0F0C0E",
"i$	c #0F0F0F",
"j$	c #0D0D0D",
"k$	c #0C0B0C",
"l$	c #0C0C0D",
"m$	c #0E0B0D",
"n$	c #0D0C0F",
"o$	c #0D0A0C",
"p$	c #434242",
"q$	c #0B0A0B",
"r$	c #0B0B0C",
"s$	c #A09B9D",
"t$	c #413F40",
"u$	c #131011",
"v$	c #0C0A0D",
"w$	c #0D0B0C",
"x$	c #3D3C3D",
"y$	c #A29E9F",
"z$	c #3B3A3A",
"A$	c #121111",
"B$	c #0B0A0D",
"C$	c #090909",
"D$	c #0B0B0B",
"E$	c #0C0A0B",
"F$	c #A4A0A1",
"G$	c #3C3A3A",
"H$	c #0C0C0C",
"I$	c #0E0E0E",
"J$	c #A7A3A4",
"K$	c #393638",
"L$	c #100D0E",
"M$	c #0D0C0C",
"N$	c #0C090C",
"O$	c #181717",
"P$	c #A9A5A6",
"Q$	c #0F0C0D",
"R$	c #0A090B",
"S$	c #0D0D0F",
"T$	c #AAA7A8",
"U$	c #0E0D0D",
"V$	c #0F0E11",
"W$	c #ACA8A9",
"X$	c #302E2E",
"Y$	c #0D0A0B",
"Z$	c #1F1E1F",
"`$	c #A8A4A6",
" %	c #302E2F",
".%	c #0C0B0B",
"+%	c #0C0C0E",
"@%	c #0B090B",
"#%	c #232223",
"$%	c #898285",
"%%	c #090709",
"&%	c #5E5056",
"*%	c #0E0B0C",
"=%	c #242323",
"-%	c #282526",
";%	c #292829",
">%	c #272325",
",%	c #0B0A0C",
"'%	c #0E0C0C",
")%	c #0C0A0A",
"!%	c #0A080A",
"~%	c #0A0A0A",
"{%	c #0D0A0E",
"]%	c #4C4C4C",
"^%	c #262223",
"/%	c #0B090A",
"(%	c #0A0809",
"_%	c #0B090C",
":%	c #0B0B0D",
"<%	c #595959",
"[%	c #242022",
"}%	c #0A090A",
"|%	c #0A080B",
"1%	c #0C090B",
"2%	c #696869",
"3%	c #61555A",
"4%	c #080809",
"5%	c #09090A",
"6%	c #08080A",
"7%	c #0B080C",
"8%	c #0B0A0A",
"9%	c #717171",
"0%	c #A9A6A7",
"a%	c #181919",
"b%	c #080707",
"c%	c #080708",
"d%	c #777777",
"e%	c #D6D5D5",
"f%	c #080808",
"g%	c #090808",
"h%	c #090708",
"i%	c #090607",
"j%	c #7E7D7E",
"k%	c #D8D7D7",
"l%	c #131312",
"m%	c #060607",
"n%	c #060606",
"o%	c #070607",
"p%	c #070606",
"q%	c #090809",
"r%	c #09080A",
"s%	c #0A070B",
"t%	c #0C090D",
"u%	c #0D0B0B",
"v%	c #808080",
"w%	c #DAD9D8",
"x%	c #050505",
"y%	c #040404",
"z%	c #0B080B",
"A%	c #D8D8D6",
"B%	c #050405",
"C%	c #030303",
"D%	c #070707",
"E%	c #888887",
"F%	c #E7E7E6",
"G%	c #151615",
"H%	c #020202",
"I%	c #010101",
"J%	c #100F0F",
"K%	c #939390",
"L%	c #DDDDDB",
"M%	c #807F7C",
"N%	c #72726E",
"O%	c #231B1E",
"P%	c #2F292A",
"Q%	c #5C5957",
"R%	c #4F4D49",
"S%	c #484642",
"T%	c #453F3E",
"U%	c #483E40",
"V%	c #483E3F",
"W%	c #483F40",
"X%	c #493F41",
"Y%	c #4A4143",
"Z%	c #4E4546",
"`%	c #554D4D",
" &	c #585051",
".&	c #595252",
"+&	c #585152",
"@&	c #56504F",
"#&	c #514A4A",
"$&	c #514949",
"%&	c #4C4345",
"&&	c #494141",
"*&	c #423D3C",
"=&	c #3F3A38",
"-&	c #33342E",
";&	c #32322D",
">&	c #2F2F2A",
",&	c #2F2F2B",
"'&	c #2E2E2C",
")&	c #2B2A28",
"!&	c #292925",
"~&	c #262622",
"{&	c #252421",
"]&	c #252523",
"^&	c #2E292A",
"/&	c #352D2F",
"(&	c #3A3334",
"_&	c #3F3839",
":&	c #A7A5A4",
"<&	c #594B50",
"[&	c #736A6D",
"}&	c #776E71",
"|&	c #766E71",
"1&	c #746B6F",
"2&	c #695E62",
"3&	c #534249",
". . . . . . . . . . . . . . . . . . . . . . . . . . . . . . . . . . . . . . . . . . . . . . . . . . . . . . . . . . . . . . . . ",
". . . . . . . . . . . . . + @ # $ % % & & & * = * - ; % > ; * * , ' ) ! ~ * { ] ^ / ( _ _ _ _ : : : : < : [ } . . . . . . . . . ",
". . . . . . . . . . . . | 1 2 3 4 5 6 7 8 9 0 a b c d a 9 e f g h i h j k l m n o p q r s t u v w g x y z A B . . . . . . . . . ",
". . . . . . . . . . . . C D E F G H I J K L M N O P Q R S T R U V R W X Y Z ` f  ...+.e @.P #.S P +.+.e $.%.&.. . . . . . . . . ",
". . . . . . . . . . . . C * *.=.-.;.J >.,.@.'.).#.!.#.~.S {.].^./.d (._.e :.<.(.S  .@.[.e }.|.@.1.M @.(.+.2.3.. . . . . . . . . ",
". . . . . . . . . . . . C - 4.5.6.7.8.9.7 9  .d S 0.M a.R _.0 :.b.@.M +.#.0 ).c.0 @.@.P c d.e.f.g.h.1.i.#.j.k.. . . . . . . . . ",
". . . . . . . . . . . . C l.m.H 6.n.o.9.Z Z p.e q.L e }.e  .#.r.#.c.c.a.Z X ~.e.}. .(. .e.s.c.t.~./.u.v.w.U x.. . . . . . . . . ",
". . . . . . . . . . . . C y.z.A.B.C.D.n.9 9 E.e <.r.@.~.Q L #.9 #.d O a.v.~.e./.F.~.u.G.c.f.H.g.I.J.h.e.@.R x.. . . . . . . . . ",
". . . . . . . . . . . . C K.L.o.J M.N.].r.(.O.Q (.O 1.~.O G.P M @.}.q.P.I.P.Q.R.S.P.T.@.u.1.U.I.Q.V.W.I.J.e X.. . . . . . . . . ",
". . . . . . . . . . . . C y.Y.Z.`.,. +.+++}.^.~.}.v.g.E.:.(.s.O u.J.J.u.v.@+r.1.@+#+I.P.$+I.%+Q.&+*+@+Q.h.e x.. . . . . . . . . ",
". . . . . . . . . . . . C =+-+;+,.,.0.>+0 Q (.e.v.c.c.F.s.,+'+g.1.)+@+W.Q.s.f.f.1.f.!+g.@+~+V.{+!+]+&+!+@+(.^+. . . . . . . . . ",
". . . . . . . . . . . . C /+5.L 8 9. .(+_+:+M a <+e.(.J.I.[+v.V.Q.{+I.}+|+@+V.I.&+{+}+1+@+{+!+|+2+3+4+&+5+@.@ . . . . . . . . . ",
". . . . . . . . . . . . 6+7+8+J 9+>+'.(+0+a+b+G O P.}.~.F.c+d+e+]+F.f+g+&+H.V.G.1.c.g.h+j &+!+}+i+!+i+I.V.~.j+. . . . . . . . . ",
". . . . . . . . . . . . k+l+m+,.:.8 n+>+o+q.p+q+r+s+t+u+v+w+x+y+z+A+O.!+B+C+o l+D+E+F+G+H+I+J+K+*+L+M+V.M+1.X.. . . . . . . . . ",
". . . . . . . . . . . . k+N+O+,.].(+P+8 Q+R+S+T+U+V+W+X+Y+Z+`+ @.@+@@@#@$@%@&@`+*@=@-@;@>@,@'@)@i+i+%+{+!@c.~@. . . . . . . . . ",
". . . . . . . . . . . . k+{@]@^@(+n+(+/@(@_@:@<@[@}@|@1@2@3@7+4@5@6@7@8@9@0@a@b@c@d@e@f@4+g@h@i@3+M+}+}+j@v.k@. . . . . . . . . ",
". . . . . . . . . . . . k+l@m@n@>+8 o@p@q@#+z r@s@z.t@u@v@w@x@y@z@A@B@3+C@D@E@F@G@H@I@x@V.J@K@M+!+4+L@5+j@++M@. . . . . . . . . ",
". . . . . . . . . . . . k+l@N@`.O@8 P@Q@R@S@T@U@V@W@X@i@U@Y@Z@`@ #.#+#@#D@##$#%#&#*#=#i+M+r@-#;#!+M+*+@#>#(.,#. . . . . . . . . ",
". . . . . . . . . . . . k+'#)#O !#/@~#O@{#]#'+g.8@u.L@@+W.J.h.&+^#5+*+L@i+}+@+W./#}+!@5+5+(#L@}+}+|+j@_#_#u.:#. . . . . . . . . ",
". . . . . . . . . . . . <#[#}#(+s.v.Q@|#V.%+J.@+@+Q.1#{+@+Q.I.Q.3+2#{+4+3#i+&+}+M+W./#i+4#|+!+j@5#i+}+_#L@q.6#. . . . . . . . . ",
". . . . . . . . . . . . 7#8#9.'+Q@9#$+>@[+M+@+#+I.5+0#}+~+%+W.{+Q.8@&+]+S.4+a#!+~+}+W.*+}+}+}+W.5+2#i+j@j@h.b#. . . . . . . . . ",
". . . . . . . . . . . . . c#.+Q@O@)+Q.$+d#$+4+{+{+e#!+3+W.}+&+{+I.H.f#H.@+>@$+%+}+i+}+@+W.g#4#}+h#i#|+j#k#H.l#. . . . . . . . . ",
". . . . . . . . . . . . . m#n#&#o#0#(#D+%+S.4+H.}+M+f#*+i#~+%+*+3+2+&+J.!+p#%+*+f#q#&+i+}+*+|+~+(#r#k#j#j@K@s#. . . . . . . . . ",
". . . . . . . . . . . . . t#P+u#o@0#(#L@L@H.v#}+M+D+2#k#*+%+M+5#J.M+!+&+I.&+M+a#i+2#*+}+5+@#!@@#w#(#W._#!@K@s#. . . . . . . . . ",
". . . . . . . . . . . . . x#u#y#z#z#A#}+k#}+M+i+%+{+5+(#k#(#/#j@!@W.3+z#~+i+3+V.B#*+j#*+_#i+C#@#_#D#@#=#*+3+E#. . . . . . . . . ",
". . . . . . . . . . . . . z+F#&#A#Q@D#$#a#L@L@~+2#2#!@!@(#*+(#j@W.1#2+i#*+%+3+i+*+}+g#h#$#>#D#_#G#>#j#j#@#S.s#. . . . . . . . . ",
". . . . . . . . . . . . . $@O@Z+H#I#J#!@r#K#D#L#k#M#N#O#!@C#i#*+3+}+5+&+(#5+_#}+>#L@4#=#!@W.a#_#a#*+P#j#~+z#Q#. . . . . . . . . ",
". . . . . . . . . . . . . R#S#T#U#K#z#D#/#i#$#M+i#a#C#!@r#$#L+k#5#L@*+V._#V#k#k#}+1#i+L@$#k#j#j#j#W#X#>#g#8@Y#. . . . . . . . . ",
". . . . . . . . . . . . . Z#`#1+1#1#0#/#W.5+j@i#(#/#k# $=#5#!@!@5+X#*+W.5+j@5+.$*+W.(#k#(#+$@#j@j#a#@$X##${+$$. . . . . . . . . ",
". . . . . . . . . . . . . Z#)+D#k#k#D+i#(#$+W.%$k#C#&$@#.$O#*$O#*+2#@#j@_#_#(#~+k#j#.$.$=$-$;$j@j@@#W#j#_#4+>$. . . . . . . . . ",
". . . . . . . . . . . . . ,$T#K#D#/#!@i#i#k#(#&$5#'$)$O#!@*+!$O#@#.$*+$# $$#k#_#~$j#X#!${$]$j#.$>#O#O#.$^$d#/$. . . . . . . . . ",
". . . . . . . . . . . . . ($T#K#_$k#0#/#g#r#.$.$:$-$:$V#$#j#>#5+<$a#>#a#~+i+.$)$L+j@_#&$j#O#!$]$)$(#^$[${$g.}$. . . . . . . . . ",
". . . . . . . . . . . . . V@|$1$(#5#C#_#!@j@>#2$^$!$3$C#j@j#j@j#@#w#+$3$5#@#@#4$5$O#@#_#&$*+6$7$>#{$>##$O#%+8$. . . . . . . . . ",
". . . . . . . . . . . . . 9$H#D+K#(#L#0$:$~$#$'$'$a$b$C#L+!@!@j@>#k#c$!$O#W.=#5#5#3$&$.$-$a#-$#$_$j#{$d$c$L+e$. . . . . . . . . ",
". . . . . . . . . . . . . f$K#g$K#V#h$ $_#i$j$k$^$l$:$!$-$'$k$j#j#m$*$M##$_#L+~+w#.$n$@#j#O#5$l$w#{$o$.$*$~$e$. . . . . . . . . ",
". . . . . . . . . . . . . p$1$D#g$w#^$.$V#+$:$:$q$!$r$&$!$(#!@!@a#j#!@6$j#>#$#!@!@^$#$.$>#]$C#L+@#O##$a$]$~$s$. . . . . . . . . ",
". . . . . . . . . . . . . t$K#w#u$$#h$c$_#>#.$]$]$)$v$d$!@a#5#@#_#a#2#&$O#P#k#i$^$2$!$+$j@>#C#.$c$w$^${$j#j#s$. . . . . . . . . ",
". . . . . . . . . . . . . x$D#r# $ $#$O#k#w$w${$v$)$k$]$.$.$^$>##$#$V#4$O#@$+$:$+$'$:$+$.$V#-$>#h$h$c${$.$C#y$. . . . . . . . . ",
". . . . . . . . . . . . . z$A$=$ $j#^$.${$B$)$d$k$C$D$w$^$_#j#!@-$@#.$=$#$~$+$~$h$_$@$-$W#~$l$E$^$m$c$+$>#L#F$. . . . . . . . . ",
". . . . . . . . . . . . . G$w#=$2$!@_$h$>#{$r$q$H$:$'$!@7$.$_$W#@#=#r#@#^$'$k#+$.$]$O#&$j#I$@$_$O#{$d$q${$%+J$. . . . . . . . . ",
". . . . . . . . . . . . . K$L$2$M$.$.$#$]$c$v$a$H$q$!$)$3$m$.$^$+$_# $@#)$n$&$&$>#H$6$2$I$^${${$m$c$N$v$2$O$P$. . . . . . . . . ",
". . . . . . . . . . . . . F 2$Q$2$M$'$)$6$c$m$r$R$j$-$X#^$C#.$:$H$ $S$#$#$=#w#0$i$=#*$5$j#m$]$c$>#]$#$c$2$V+T$. . . . . . . . . ",
". . . . . . . . . . . . . A. $w$3$)$*$!@>#)$W#*$)$@$v$!@5$U$!@)$-$V$S$6$#$O#=#a#O#)$O#!@2$c$>#{${${${$@${$/@W$. . . . . . . . . ",
". . . . . . . . . . . . . X$+$m$m$L$V#w$h$^$v$]$^$S$)$.$-$I$:$.$!@.$4$&$~$.$&$!@j#{$k#>#O#!$]$a$n$Y$]$#$c$Z$`$. . . . . . . . . ",
". . . . . . . . . . . . .  %D$H$U$.%.$.$^$'$+%#$a$v$)$^$:$&$H$6$3$!$^$I$I$'$!@V$4$W#_#a#O##${$#$3$2$N$B$@%#%$%. . . . . . . . . ",
". . . . . . . . . . . . . G M$H$d$)$@#a${$m$:$*$n$E$>#]$H$r$I$r$4$j$3$-$&$o$+$>#>#c$m$.$a#>#X#{$># $@%%%d$N.&%. . . . . . . . . ",
". . . . . . . . . . . . . I w$*%Y$*%k$]$2$>#c$'$2$^$)$W#W#n$@$W#m$4$-$^$!@.$ $X#W#O#X#O#*$m$h$X#>#*%E$d$m$=%. . . . . . . . . . ",
". . . . . . . . . . . . . -%2$w$d$^$)$)$d$N$c$)$]$c${$c$@$]$j#W#j##$n$@#.% $!@{$>#j#{$>#O#>#h$W#_$)$>#c$j#;%. . . . . . . . . . ",
". . . . . . . . . . . . . >%w$Q$E$v$,%d$d$@%Q$o${$@$^$o$@%{$w$^${$P#j@v$~$k$ $>#>#>#'%&${$j#j#{$7$2${${$h$x$. . . . . . . . . . ",
". . . . . . . . . . . . . ,.)%o$!%N$q$~%q$N$]$,%'$r$H$D$@%]$k$2$c$#$)$O#*$&$:$n$O#>#{$!@#$*%2$d$a$d$@${%.$]%. . . . . . . . . . ",
". . . . . . . . . . . . . ^%/%[$(%!%_%a$_%w$]$!$2$]$w$m$o$]$]$]$m$c$>#>#{$2$.$l$'$c$>#c$!$+$]$a$:%v$E$)$&$<%. . . . . . . . . . ",
". . . . . . . . . . . . . [%}%/%d$|%R$d$_%]$]$S$a$m$c$]$#$)$#$]$]$]$!$!$'$@$)$q$k${$1%_$^$]$N$C$B$v$1%^$C#2%. . . . . . . . . . ",
". . . . . . . . . . . . 3%/@C$4%}%5%6%_%7%c$:%7$@$_%}%]$^$)$k$k$v$)$'$#$^$@%{$8%!$c$N$@$:$]$@%/%B$)$o$w$h$9%. . . . . . . . . . ",
". . . . . . . . . . . . 0%a%b%c%%%!%~%_%w$@%r$q$k$#$a$@$_%m$c$c$#${$]$E$w$w$#$O#k$'$7$a$v$a$r$q$v$a$N${$j#d%. . . . . . . . . . ",
". . . . . . . . . . . . e%`#f%g%h%i%@%|%|%@%v$d$o$d$c$#$N$c$/%q$o$*%w$E$w$d$k$^$d$^$O#]$@$m$a$E$E$k${${$j@j%. . . . . . . . . . ",
". . . . . . . . . . . . k%l%m%n%o%p%q%r%|%s%[$@$c$t%@%_%N$,%q$d$c$E$m$]$]$]$v$@$.%]$Q$(%{${$D$Y$u%]$_$>#_#v%. . . . . . . . . . ",
". . . . . . . . . . . . w%|$x%y%n%n%n%f%r%c$]$z%]$c$d$N$N$E$c$@%E$E$t%k$,%d$1%o$@${$.%E$o${$d$o${$2$.$.$L#J@. . . . . . . . . . ",
". . . . . . . . . . . . A%l%B%C%C%C%x%D%r%[$E$N$k$w$w$o$1%d$w$E$w$w$@$]$Y$'%m$]$>#{%Q$^$]$^$>#{$2$ $ $ $0#E%. . . . . . . . . . ",
". . . . . . . . . . . . F%G%x%H%I%C%y%D%R$!%.%@%,%u%Y$o$E$2$1$w#C#V#!@V#w# $w#V#$#L+J%/#*+w#V#k#k#(#1$K#A#K%. . . . . . . . . . ",
". . . . . . . . . . . . L%M%N%O%P%Q%R%S%T%U%V%W%W%X%Y%Z%`% &.&+&@&#&$&%&&&*&=&-&;&>&,&'&)&!&~&{&]&^&/&(&_&:&. . . . . . . . . . ",
". . . . . . . . . . . . . . . . . . . . . . . . . . . . . . . . . . . . . . . <&[&}&}&}&|&}&}&1&2&3&. . . . . . . . . . . . . . ",
". . . . . . . . . . . . . . . . . . . . . . . . . . . . . . . . . . . . . . . . . . . . . . . . . . . . . . . . . . . . . . . . ",
". . . . . . . . . . . . . . . . . . . . . . . . . . . . . . . . . . . . . . . . . . . . . . . . . . . . . . . . . . . . . . . . ",
". . . . . . . . . . . . . . . . . . . . . . . . . . . . . . . . . . . . . . . . . . . . . . . . . . . . . . . . . . . . . . . . "};
