/* XPM */
static char * floor_xpm[] = {
"64 64 7 1",
" 	c None",
".	c #514047",
"+	c #514147",
"@	c #503F46",
"#	c #4E3C43",
"$	c #4D3A42",
"%	c #4B3840",
"................................................................",
"................................................................",
"................................................................",
"................................................................",
"................................................................",
"................................................................",
".................................................++.............",
"................................................@@@@............",
"...............................................@#$$#@...........",
"..............................................+@$%%$@+..........",
".....................++.......................+@$%%$@+..........",
"....................@@@@.......................@#$$#@...........",
"...................@#$$#@.......................@@@@............",
"..................+@$%%$@+.......................++.............",
"..................+@$%%$@+......................................",
"...................@#$$#@.......................................",
"....................@@@@........................................",
".....................++.........................................",
"................................................................",
"................................................................",
"................................................................",
"................................................................",
"................................................................",
"................................................................",
"................................................................",
"................................................................",
".....................................++.........................",
"....................................@@@@........................",
"...................................@#$$#@.......................",
"..................................+@$%%$@+......................",
"..................................+@$%%$@+......................",
"...................................@#$$#@.......................",
"....................................@@@@........................",
".....................................++.........................",
".....................++.........................................",
"....................@@@@........................................",
"...................@#$$#@.......................................",
"..................+@$%%$@+......................................",
"..................+@$%%$@+...................++.................",
"...................@#$$#@...................@@@@................",
"....................@@@@...................@#$$#@...............",
"..........................................+@$%%$@+..............",
"..........................................+@$%%$@+..............",
"................@@@@.......................@#$$#@...............",
"...............@#$$#@.......................@@@@................",
"..............+@$%%$@+.......................++.................",
"..............+@$%%$@+..........................................",
"...............@#$$#@...........................................",
"................@@@@............................................",
".................++.............................................",
"................................................................",
"................................................................",
"................................................................",
"................................................................",
"................................................................",
"................................................................",
"................................................................",
"................................................................",
"................................................................",
"................................................................",
"................................................................",
"................................................................",
"................................................................",
"................................................................"};
