/* XPM */
static char * player_xpm[] = {
"64 64 278 2",
"  	c None",
". 	c #514047",
"+ 	c #514248",
"@ 	c #524249",
"# 	c #5C555A",
"$ 	c #697B7D",
"% 	c #465761",
"& 	c #4C5C69",
"* 	c #4C5A65",
"= 	c #555962",
"- 	c #545259",
"; 	c #3A3A42",
"> 	c #33343C",
", 	c #43444A",
"' 	c #4E5260",
") 	c #343742",
"! 	c #464B53",
"~ 	c #4E5058",
"{ 	c #313434",
"] 	c #4B4D4D",
"^ 	c #424449",
"/ 	c #4C5054",
"( 	c #7D8282",
"_ 	c #2B333B",
": 	c #656A6C",
"< 	c #83858A",
"[ 	c #767682",
"} 	c #2B2C34",
"| 	c #3B3C4B",
"1 	c #899A99",
"2 	c #7C8E8D",
"3 	c #4B6971",
"4 	c #50424A",
"5 	c #514F59",
"6 	c #748281",
"7 	c #959A9C",
"8 	c #BCBFC3",
"9 	c #91959B",
"0 	c #282C3D",
"a 	c #757A7A",
"b 	c #6D7279",
"c 	c #B4B4B7",
"d 	c #9C9FA5",
"e 	c #666B72",
"f 	c #7D838A",
"g 	c #4B4B56",
"h 	c #51454C",
"i 	c #52454A",
"j 	c #6E8E7C",
"k 	c #535763",
"l 	c #484E58",
"m 	c #4B4D5A",
"n 	c #5E6164",
"o 	c #DADBDD",
"p 	c #E4E5E9",
"q 	c #EBECED",
"r 	c #E5EBEC",
"s 	c #ACAFB4",
"t 	c #858A8C",
"u 	c #6D6E72",
"v 	c #7C7E83",
"w 	c #636365",
"x 	c #757B83",
"y 	c #4D4750",
"z 	c #5F685E",
"A 	c #627B6C",
"B 	c #708B7C",
"C 	c #47505D",
"D 	c #4E556A",
"E 	c #A2A4A7",
"F 	c #EDF1F2",
"G 	c #DDE3E5",
"H 	c #64656B",
"I 	c #576C6B",
"J 	c #545E68",
"K 	c #4C4953",
"L 	c #53474B",
"M 	c #6C8C73",
"N 	c #515558",
"O 	c #8B8B8D",
"P 	c #E2E4E5",
"Q 	c #EBEAE5",
"R 	c #8C9194",
"S 	c #919495",
"T 	c #5A5B5D",
"U 	c #5B5E58",
"V 	c #757579",
"W 	c #F3F4F4",
"X 	c #F2EFEB",
"Y 	c #B6BABC",
"Z 	c #514147",
"` 	c #576B6A",
" .	c #CBCCCC",
"..	c #6B6B6D",
"+.	c #524C57",
"@.	c #514148",
"#.	c #565654",
"$.	c #4B4C50",
"%.	c #DCDEE3",
"&.	c #DCE1DD",
"*.	c #535259",
"=.	c #464B52",
"-.	c #464B59",
";.	c #5C595F",
">.	c #4D3E45",
",.	c #524449",
"'.	c #BDBDBD",
").	c #8B8C92",
"!.	c #D4DADC",
"~.	c #5E6366",
"{.	c #544A4C",
"].	c #524248",
"^.	c #E5EAE6",
"/.	c #828483",
"(.	c #6A686F",
"_.	c #5A5D56",
":.	c #4B5B56",
"<.	c #555151",
"[.	c #C5C5C4",
"}.	c #A4ABAC",
"|.	c #CDD3D4",
"1.	c #ECF2ED",
"2.	c #6C7272",
"3.	c #503F46",
"4.	c #5A5D69",
"5.	c #53464A",
"6.	c #C3C7CB",
"7.	c #CACCD2",
"8.	c #4E464C",
"9.	c #6A8770",
"0.	c #D2D4D5",
"a.	c #ACADAD",
"b.	c #9A9F9C",
"c.	c #5D636D",
"d.	c #554F4E",
"e.	c #727375",
"f.	c #4F4850",
"g.	c #5B5D63",
"h.	c #504148",
"i.	c #545658",
"j.	c #7A7A7C",
"k.	c #40434A",
"l.	c #4C4D55",
"m.	c #4C4E56",
"n.	c #465A50",
"o.	c #53474A",
"p.	c #565350",
"q.	c #D4D6DB",
"r.	c #545D5E",
"s.	c #4F535A",
"t.	c #575453",
"u.	c #5C6B61",
"v.	c #595D54",
"w.	c #708D71",
"x.	c #524348",
"y.	c #5A5C59",
"z.	c #222C33",
"A.	c #575154",
"B.	c #3C4240",
"C.	c #4F454C",
"D.	c #838C81",
"E.	c #4B4748",
"F.	c #626B65",
"G.	c #697866",
"H.	c #5B615A",
"I.	c #819D83",
"J.	c #989696",
"K.	c #23252E",
"L.	c #1A1D24",
"M.	c #322D23",
"N.	c #716A4A",
"O.	c #A49A6F",
"P.	c #B9A770",
"Q.	c #2C2416",
"R.	c #8E9B8D",
"S.	c #5A5048",
"T.	c #6A6346",
"U.	c #3F3A35",
"V.	c #32312B",
"W.	c #827D82",
"X.	c #5A635C",
"Y.	c #4C4F55",
"Z.	c #444E49",
"`.	c #645D5F",
" +	c #585655",
".+	c #2F4538",
"++	c #697466",
"@+	c #5D655C",
"#+	c #84A286",
"$+	c #242323",
"%+	c #837B59",
"&+	c #C9B16F",
"*+	c #AA8B51",
"=+	c #684B1E",
"-+	c #C9B280",
";+	c #93865C",
">+	c #302323",
",+	c #595135",
"'+	c #54595B",
")+	c #4E494F",
"!+	c #475860",
"~+	c #2C3629",
"{+	c #6B7768",
"]+	c #54464B",
"^+	c #677064",
"/+	c #DFE9E5",
"(+	c #4A493D",
"_+	c #B8AC7D",
":+	c #D2BD79",
"<+	c #50310A",
"[+	c #643513",
"}+	c #838386",
"|+	c #4E555C",
"1+	c #4A6B73",
"2+	c #779478",
"3+	c #969B98",
"4+	c #858A92",
"5+	c #82522E",
"6+	c #6D381A",
"7+	c #916E2B",
"8+	c #9E9CA0",
"9+	c #4E484F",
"0+	c #514249",
"a+	c #4C6067",
"b+	c #466061",
"c+	c #1A202D",
"d+	c #111423",
"e+	c #3C342C",
"f+	c #2C2B25",
"g+	c #D7DCD5",
"h+	c #452F25",
"i+	c #140B14",
"j+	c #81704D",
"k+	c #465F61",
"l+	c #576969",
"m+	c #191C17",
"n+	c #1B1410",
"o+	c #5C573B",
"p+	c #2B211D",
"q+	c #232018",
"r+	c #8C8683",
"s+	c #0B0B21",
"t+	c #202D27",
"u+	c #130C08",
"v+	c #15130F",
"w+	c #070402",
"x+	c #0E0904",
"y+	c #E2E0DD",
"z+	c #726A6A",
"A+	c #252349",
"B+	c #2C3354",
"C+	c #262B4C",
"D+	c #494858",
"E+	c #827E7D",
"F+	c #E3DBD4",
"G+	c #5F665C",
"H+	c #2A3746",
"I+	c #7A7A74",
"J+	c #090A0D",
"K+	c #333551",
"L+	c #252D53",
"M+	c #2A325B",
"N+	c #1C2147",
"O+	c #1D1F3C",
"P+	c #623C3D",
"Q+	c #35232E",
"R+	c #1F1322",
"S+	c #483032",
"T+	c #492B2B",
"U+	c #493942",
"V+	c #6C5A5B",
"W+	c #442224",
"X+	c #593434",
"Y+	c #6A656B",
"Z+	c #4B2425",
"`+	c #7B757C",
" @	c #36385B",
".@	c #6D6E7E",
". . . . . + @ . . # $ % & * = - ; > , = ' ) ) ! - ) ~ = ' ' ' ' , ) { ] ^ / ( ) _ ! : < _ ; ; [ ^ ! ] } | 1 2 3 4 . . . . . . 5 ",
". . . . . . . . . 6 $ % & * ' - ^ > > ~ = ! ) > , , ! 7 8 9 ~ = ; 0 > ^ ) ^ a ) ; ~ b c d ) ! e 0 / ; > ~ 2 f g . . . . . . . h ",
". . . . . . . i j 2 $ & k * l - ! _ > ) m = ! ) _ n o p q r s t | > > > ; > u ) ^ ~ v o q 8 ~ | ) ! _ _ w e x y . . . . . . . . ",
". . . . . . . z A B $ C D ' ~ ! ~ ) > > ) ! = f E d F q q r r G c } > { ; _ H | ! ~ c q q F s / ; _ } _ = I J K . . . . . . . . ",
". . . . . . . L M N A ' k ' ' | = ! > > > > O P F P F r F q q F Q u > } ; > = ) / R P F q r P S T > _ , ~ % l K . . . . . . . . ",
". . . . . . . . U l ~ ' = ' ~ ) ~ ~ | ) > V G F q P W q q q q q Q c } } > > / ) v p r q q r X Y t ) ; m m l ' y . . . . . . . . ",
"Z . . . . . . . . ` N ' * ' ~ _ / ' ' ^ n P r p q F q q q q q F q P n > _ ; ^ ;  .q q q q q q  .S ..^ ' ~ l C +.. . . . . . . . ",
"@.. . . . . . . . #.$.* ' ' ' _ _ ! = ~ c Q r %.q q q q q q q q q r c } > ; ) R q q q q q q r &.t R *.=.-.C l ;.. . . . . . . >.",
"Z . . . . . . . . ,.~ ' ' -.' , > ! ! = '.q  .q q q q q q q q q q q p ).a > , !.q q q q q q q G R R T > =.C C ~.. . . . . . . . ",
". . . . . . . {.. ].~ * * . ~ / } , ' ~  .&.8 q F q q q q q q q q q F ^.'.- 7 F ^.q q q q q q p S /.n _ =.-.C (.. . . . . . . . ",
". . . . . . . _.:.<.= ' ' -.. ~ } ) m = [.}.|.p F q q q q q q q q q 1.^.o v o r r q q q q q q G S ( 2._ 3.' 4.~.. . . . . . . . ",
". . . . . . . 5.A N N l ' -.) / , _ ! m 6.E o r q q q q q q q q q q r r 7.9 o q F q q q q q q P S ( v } =.-.$ 8.. . . . . . . . ",
". . . . . . . . 9.l l C ' l _ ! / _ > t 0.Y 7.F r q q q q q q q q q ^.F a.).}.r q q q q q q q q b.< O _ ! 4.c.. . . . . . . . . ",
". . . . . . . . 5.I l ' C ' > ; / ; } a. .[.0.r r r r r q q q r P p q P S R S o q q q q q q q q a.t t T ^ = ~ . . . . . . . . . ",
". . . . . . . . . d.l * ' m ) { ^ ^ ^ c a.s F P F q q q q q q q r s |.|.).O ).Y q q q q q q ^.q 0.t ( e., l ! 8.. . . . . . . . ",
"Z . . . . . . . . . f.l ' -.| } > ^ g.0.O '.1.q q q q q q q p G P G b.E O R O s ^.q q q q q F r q d O < / -.. . . . . . . . . h.",
"Z . . . . . . . . . i.l C -.! _ } } n ^.j.a.%.q q r q q q r q 0.o  .c t R R t c ^.F p p P P r ^.P !.).t - ! k.l.. . . . . . . m.",
". n.o.. . . . . . . p.. C l ! _ } w c P 0.^ s ^.P P P P |.p q q q q ^.[.j.).R 6.|.b.8 q q.0.!.P ^.P S v ^ ! . r.. . . . . . . s.",
"t.u.v.w.x.. . . . . y.. C l -.! z./.^.q Q O ^ E T A.n u v u  .p q p ^.r S v O E V c p Y t j.V j.E c < a B.-.I r.. . . . . . . C.",
"D.@.E.F.G.. . . . H.I.a.7.o 6.9 _ u G F p J.K.L.M.N.O.P.O.N.Q.H 8 P ^.P 9 j.).v R.!.c K.S.N.T.U.V.j.f ^ W.7 a X.. . . . . . Y.. ",
"Z.`. +.+v.++. . @+#+ .|.7 s P ^.d - q F r E K.$+%+&+*+=+*+-+;+>+V 9 %.&.R < R < S [.B.N.P.O.-+O.,+U.} < [.S 8 '+. . . . )+!+% z.",
"~+{ A F..+/ {+]+^+b./+t v ).7 P p ).G q q G g.(+_+:+<+=+<+&+:+,+T ).}.s R O t ).t ..,+P.P.<+[+P.O.Q.v.a./.j.v }+. . . |+1+$.z.) ",
"~+V.V.(+{ ~+B.2+3+b.^.( 4+x f  .%.|.|.P q q b.U.&+:+5+6+7+:+:+%+$+( t R t ).t ).< > %+:+*+[+[+O._+M.e.: /.< E 8+9+0+a+b+. c+d+K.",
"V.V.V.e+f+f+{ f+A.R.g+0.'.Y f R P ^.P &.q q 7.> O.:+:+P.-+&+-+h+i+T < }.|.|.c s g.K.N.-+&+j+;+_+;+{ v n /.t 7.d k+l+$.{ m+n+>+K.",
"V.M.>+f+e+f+f+V.V.~+E Q q 0.8 ).S P r o q p r v V.;+-+-+&+P.o+'.0.c 7 &.'.|.%. .c u f+;+-+-+_+O.M.w j.H e.a.0.A ! _ L.n+p+f+M.q+",
"e+M.>+q+m+p+V.V.M.{ > Y P &.'.S S q.^.q.^.1.^.o t E c r+U.s+e.'.0.).E /.Y 0.8 [.P 8  .( V.S.,+< R }.j.n j.O /.t+$+m+m+f+>+p+n+u+",
"n+p+M.M.>+v+u+q+M.V.V.{ J.^.q r 8 ^.q 7.F r q p p P p ^.o o  .}.E |.s q.P r %.[.q.o S d 8 [.[.&.P S /.w w : V.$+m+$+p+>+n+w+u+n+",
"n+x+v+q+f+M.q+u+v+p+M.V.V...g+y+Q y+P P 4+%.p F q r r 1.q r p o p r q. .r p !.8 6.p G o o %.p o 0./././ ^ $+q+f+f+f+m+x+x+v+q+n+",
">+n+v+u+u+n+q+n+v+u+m+p+q+n+e+z+j./.q P 9 ).p r q F r r q r r r q 6.p s P p G }.6.G p P r p G o s v V $+^ $+f+p+m+x+x+x+v+n+x+x+",
"m+f+n+u+u+u+u+v+u+u+u+u+V.w+T ^ A./.^.G }.A+!.p 7. .&.r q r r p 6.!.[.c p G q < 6.q.P G P E d t f ( g.U.> { U.v+x+x+u+u+u+u+x+x+",
"u+u+n+u+u+u+u+x+u+m+V.v+E 0.[.o P [.8 p 6.B+a.7 a ( ^.r r r r F 8 p ( 8 P p %.[.7.!.%.P o E v 2.e.a u V ^ (+f+q+x+u+u+x+x+x+u+v+",
"u+u+u+u+v+u+u+S.w+u  . .o ^.r q q [.E p 6.C+D+f ( './+r r r r p o r !.o p G P p P G P %.P 0.V v u B.V E+T F.v.{ u+x+x+x+x+x+x+x+",
"u+u+{ T ] e.T [.F+!.p r r r r r r s S r |.C+B+e x %.r ^.r r r r r r r P G G G G G G G G P o O j.] ] ( a ^ A.V G+^ V.v+x+x+x+x+u+",
"] a.g+P o &.P q q r G q r r r q P 9 ).P o ' B+H+R r r r r r r r r /+r P G G G G G G G G o o S j.> : j.V w / I+j...> u+J+J+J+x+x+",
"v.R ^.p q F F p r q q q r r r ^.0.f f !.p 6.K+0 x P %.r r r r r /+G p G G G G G G %.%.o o [.v u ^ e.v : ^ ] a j.j.j.w ] V.n+w+x+",
"/. .q r r r r r r r r r r r r ^.c 4+< |.G p 7 c+H+< c s s s s s c Y 6.!.%.%.%.o !.q.|.o 8 4+V ) g.j.( - v.2.: a v a e.2.e.n V.x+",
"< Y o r q q q q q r r r r r r r t t <  .P q |.c+c+C+B+C+L+L+L+M+L+L+C+. R d 4+. N+N+B+C . ^ c+> e.j.j.- G+}...j.a a j.j.V w ^ f+",
"6.}.Y q Q q q q q r r r r r r o < f f 8 p r G g.d+O+N+A+L+L+L+L+C+N+O+A+N+N+C+B+L+N+C+C+0 c+d+..H j.j.w w V a a a a a j.e.e.- ^ ",
"4+7 p r r r r r r r r r r q r  .< t < s ^.q p 4+c+} U.P+K.Q+K.> R+^ T A.w B.B.B.n+$+i+R+m+i+- j.n j.j.j.T w v a a a a j.j.V n ] ",
"G G p r r r r r r r r r r r G 6.O < ).t q q G c C+R+> S+T+J.U+V+W+S.E+X+S.S.U+S.S+Y+U+U+U.i+e.a n j.v V j.j.j.j.a a a j.j.V u ..",
"r r q r r r r r r r r r r 7.b.s < t s t  .p p !.O+K+Q+S+T+h+W+Z+T+S+W+Z+W+T+W+T+T+W+T+Q+Q+; W.u : ( V j.j.V a j.a a a j.j.V j.j.",
"r r r r r r r r r r r |.d 4+E 7 ).t [.d S P r p f B+K+> U+S+S+U+S.S+Q+`+T+S+e+h+W+T+T+A.i+w `+..u V j.j.j.a a a a a a a V V V e.",
"r r r r r r r r q 0.E t t t c S t < [.c < Y %.%.6.B+B+B+| ^ - H `+U+> [ | ! m / ; U+Q+Q+i+u e.e.j.e.j.j.j.a a a a a a V V V e.e.",
"r r r r r r P %.c ( t 4+t a.7.'.( O  .0.( /.q.P %.x M+B+B+L+B+B+ @B+B+B+B+ @B+B+C+C+O+d+; V ..v j.: j.j.j.a a a a a a V e.e.e.e.",
"r r r r q r o 7 t t < f 9 7.o 8 t < 8 P S O 7 %.p %.9 C+M+M+M+M+L+N+ @-. @N+L+B+B+K+O+c+H V e.j.V u j.j.j.j.a V V V V e.e.e.e.e.",
"r r r q q o 7 < ( < f 7 s S 6.0.f 4+c p Y t v [.%.G %.7.7 f < 7 Y 7.!.q.!.7.s 4+.@! - V v w v j.j.u V j.V j.j.V V V V e.e.e.e.e.",
"r r q q 0.S < < t O < 4+t d 7.p 9 < E p o t < f q.P %.p %.!.o !.!.!.6.c 8 q.o q.8 < v ( e.e.j.j.j.u u j.j.j.j.V V V V e.e.e.e.e.",
"q r p P 7 t < < < < < < b.6.o p 8 < 7 %.p E ( < s 6.6.o G G o |.c ).v ( v S a.R E+j.j.e.u v j.j.j.e.u j.V V V V V V e.e.e.e.e.e.",
"r r p E < < t < < 4+4+}.7.G r p q.4+).G P  .< a v 6.7 7 E 7 < x v f < v V j.j.a ..V j.e.e.j.j.j.j.V ..V V V V V V e.e.e.e.e.e.e.",
"r q s t t ( v < R }.[.P q q p p P s < 0.G %.E < ( R 7.}.V e g.< E [.0.|.c v j.V ..e...: j.j.j.j.j.j.g.V V V V V V e.e.e.e.e.e.e.",
"p 6.d '. .|.&.G P P p p p P P G G |.< 6.%.q. .t /.v 8 !.|.8 6.o g+g+o 0.0.t v V v j.e.V j.j.a j.V V T e.e.V V V V V e.e.e.e.e.e.",
"%.6.r r r r r r r p p P P P G %.p %.9 8 o o &.E ( ( d q.!.!.!.!.!.q.q.0. .( j.j.j.V ..j.j.j.j.j.V V T e.e.e.e.e.V e.e.e.e.e.e.e.",
"r p q r r r r r r P P P r r p P P %.7.b.G o o 0.< j.a 0.!.!.!.!.!.q.0.q.c a j.a a u e.j.j.j.j.V V e.- V V e.e.e.e.e.e.e.e.e.e.e.",
"r r r r r r r r r p P !.7. .6.0.o G !.b.o o o o a.v j.a.!.o q.!.!.q.q.q.S j.a a a : V j.j.j.a V e...T e.V e.e.e.e.e.e.e.e.e.e.e.",
"q q q F p G p %.7.s S < < < < ( R Y o 6.8 q.o o  .< v j.|.0.!.q.0.|.q.6.a j.a j.V : j.j.j.V V e.e.- w V e.e.e.e.e.e.e.e...u e.V ",
"r q q G 7.Y E R f < t < /./././.( ( t [.c &.o o o E v ( c |.|.|.|.|.q.}.v j.a a ..e.V V V V e.e.e.^ ..e.e.e.e.e.e.e.e.e.e.e.u ( ",
"|.8 E ).t t f f f ( /./.( /./././.( ( /.c 8 o o q. .v v x |.0.0.|.|.8 v v j.a 2.w V j.V V e.e.V w ^ e.e.e.e.e.e.e.e.e.e.u O }.b.",
"c E 7 4+< f x x v j.v /.< /./.( ( v ( ( < d 7.o q.q.7 ( j.< c |. .a.v j.j.V u H u V V V V V j.e.] T e.e.e.e.e.u e.u u O a.J.V e.",
"P P p P G G !.|.7.6.Y a.b.R < ( ( ( /.a ( ).s q.0.0.[.x j.j.e.u : g.: H w n u V V V V V V V e...B.u e.e.e.u u u a J.}.S e.e.e.u ",
"p p p r G %.G G G &.&.&.G &.q.0.'.R a ( v v a.c q.q.0.S j.j.v a j.v j.a V V V j.V V V V V V V / : e.e.e...< b.Y a.O u u u u u u ",
"P %.p p %.p G G G &.&.o o o o !.%.q.8 v ( v S 6.8 7.|.6.v v j.j.j.j.j.j.V V V V e.V V j.e.e.w u e.e.O a.'.'.Y t u u u u u u u u ",
"%.P s c %.%.G G G %.%.o G q.G %.!.o o 0.9 j.v 6.8 '.|.7.7 V j.j.j.j.j.j.V V V V V e.j...: H O b.s 8 [.'.Y 7 e.e.u u u u u u u ..",
"P %.Y v 7.G G G G %.o o o %.6.E c  .0.q.q.9 v 8 7.8  .0.[.j.( j.j.j.j.j.V V V V e.H j.c [. .[.[.[.'.[.a.( u u e.u u u u u u ....",
"g+7 s d &.P G %.%.o o o o o q.8 t < 9 [.0.|.d 6.|.|.8 |.|.c j.a a j.V j.j.j.V w ..s [.[.8 [.[.[.'.[.J.e.V 2.2.2.2.2.2..........."};
